<?xml version="1.0" encoding="UTF-8"?><svg id="Capa_1" xmlns="http://www.w3.org/2000/svg" viewBox="0 0 198 195"><defs><style>.cls-1{fill:#1c3738;stroke:#1c3738;stroke-miterlimit:10;stroke-width:1.5px;}</style></defs><g id="FAquS7.tif"><g><path class="cls-1" d="M58.93,141.93c2.4,.88,4.71,1.72,7.01,2.56,.38,.14,.93,.21,1.1,.49,.29,.48,.56,1.18,.41,1.64-.11,.33-.97,.69-1.4,.6-1.02-.2-1.98-.66-2.97-1.02-4.76-1.73-9.52-3.47-14.29-5.18-.95-.34-1.8-.77-1.41-1.92,.39-1.14,1.34-1,2.29-.65,2.18,.8,4.38,1.58,6.69,2.41,.19-.44,.39-.83,.54-1.25,3.08-8.45,6.14-16.9,9.24-25.33,.31-.85,.19-1.3-.46-1.96-2.56-2.63-3.04-6.06-3.22-9.51-.35-6.66,.91-13.1,2.9-19.41,2.63-8.33,5.99-16.37,9.97-24.14,.85-1.66,1.09-1.73,2.78-1.12,5.83,2.11,11.66,4.25,17.5,6.34,1.21,.43,1.69,1.11,1.37,2.38-2.72,10.91-5.78,21.71-11.03,31.73-2.26,4.31-4.92,8.35-8.55,11.66-2.21,2.02-4.58,3.78-7.78,3.94-.37,.02-.84,.71-1.02,1.19-2.54,6.89-5.04,13.8-7.55,20.7-.7,1.92-1.4,3.85-2.13,5.85Zm10.21-60.84c-.16,.31-.28,.5-.35,.7-2.04,5.9-3.59,11.92-3.67,18.18-.04,2.84,.31,5.76,1.02,8.5,.84,3.26,3.19,4.01,6.15,2.39,.68-.37,1.39-.76,1.92-1.3,1.86-1.88,3.8-3.7,5.42-5.78,3.96-5.1,6.45-11,8.75-16.98,.16-.42,0-1.09-.24-1.5-1.66-2.77-4.73-3.91-8.1-2.81-3.87,1.25-7.53,1.47-10.9-1.41Zm8.16-20.28c-2.18,5.14-4.31,10.13-6.4,15.13-1.11,2.67-.81,3.49,1.98,4.32,1.33,.39,2.86,.25,4.29,.15,.94-.06,1.85-.49,2.78-.71,3.48-.84,6.49,.05,9.08,2.49,.19,.18,.37,.35,.77,.73,1.6-5.42,3.13-10.63,4.68-15.89-5.8-2.1-11.32-4.1-17.18-6.21Z"/><path class="cls-1" d="M131.32,113.45c3.36,9.2,6.7,18.37,10.09,27.67,.9-.31,1.71-.58,2.51-.86,1.5-.54,3.01-1.08,4.51-1.62,.88-.32,1.78-.47,2.18,.63,.39,1.11-.42,1.55-1.29,1.86-5.62,2.04-11.24,4.08-16.86,6.12-.85,.31-1.78,.57-2.17-.59-.38-1.15,.39-1.61,1.38-1.93,2.38-.79,4.73-1.64,7.18-2.49-.12-.42-.19-.77-.31-1.1-3.11-8.53-6.23-17.06-9.31-25.6-.28-.78-.67-1.01-1.49-1.22-1.65-.42-3.36-.95-4.77-1.86-4.3-2.77-7.09-6.93-9.68-11.21-4.18-6.89-6.77-14.44-9.06-22.11-1.16-3.89-2.23-7.81-3.27-11.73-.48-1.82-.29-2.06,1.5-2.71,5.75-2.09,11.49-4.18,17.24-6.27,1.69-.61,2.06-.53,2.81,1.06,4.93,10.4,9.8,20.83,12,32.24,.96,5,1.43,10.04,.43,15.11-.55,2.8-1.47,4.55-3.6,6.61Zm-2.55-32.35c-1.16,.6-2.13,1.2-3.17,1.63-2.62,1.08-5.17,.54-7.73-.37-3.01-1.06-5.89-.18-7.79,2.11-.77,.94-.95,1.73-.47,2.93,2.87,7.15,6.11,14.1,11.42,19.8,1.46,1.57,3.28,2.92,5.18,3.92,2.24,1.18,4.15,.39,5.18-1.93,.65-1.48,1.11-3.11,1.27-4.72,.81-8.1-1.26-15.74-3.9-23.38Zm-20.74,1.46c1.8-1.01,3.3-2.04,4.95-2.73,2.47-1.04,4.92-.36,7.33,.5,2.43,.87,4.65,.47,6.69-1.11,.71-.55,.89-1.1,.51-1.98-1.59-3.68-3.08-7.41-4.64-11.1-.72-1.71-1.54-3.38-2.34-5.12-5.71,2.06-11.27,4.07-17.06,6.16,1.56,5.27,3.1,10.44,4.57,15.38Z"/><path class="cls-1" d="M100.61,52.19c0,1.05,.13,2.13-.05,3.14-.01,.06-.03,.13-.06,.19-.4,.87-1.7,.99-2.27,.21-.07-.1-.12-.2-.13-.3-.19-2.23-.24-4.48-.16-6.71,.02-.46,.77-1.23,1.2-1.24,.44-.01,1.21,.68,1.29,1.15,.19,1.16,.06,2.37,.06,3.55,.04,0,.08,0,.12,0Z"/><path class="cls-1" d="M107.08,57.34c-1.15-.04-1.79-1.04-1.3-1.89,1.18-2.05,2.43-4.08,3.77-6.03,.24-.34,1.32-.55,1.59-.32,.39,.32,.71,1.28,.5,1.67-1.12,2.04-2.38,3.99-3.66,5.94-.22,.33-.7,.49-.91,.63Z"/><path class="cls-1" d="M86.79,50.1c.16-.22,.39-.84,.73-.92,.49-.1,1.33,.02,1.56,.36,1.31,1.97,2.53,4.01,3.64,6.1,.19,.36-.19,1.22-.56,1.59-.22,.22-1.22,.1-1.4-.18-1.36-2.1-2.61-4.27-3.89-6.42-.04-.07-.03-.18-.07-.54Z"/></g></g></svg>