<?xml version="1.0" encoding="UTF-8"?><svg id="Capa_1" xmlns="http://www.w3.org/2000/svg" viewBox="0 0 198 195"><defs><style>.cls-1{fill:#fffaf8;}</style></defs><g id="paG98o.tif"><path class="cls-1" d="M47.02,85.99c-.82,0-1.37,0-1.91,0-3.05,0-3.5-.46-3.5-3.58,0-5.58,0-11.17,0-16.75,0-1.45,0-2.89,0-4.34,0-2.57,.62-3.19,3.16-3.19,15.2,0,30.41,0,45.61,0h1.39c-3.34-1.26-6.91-2.37-10.25-3.95-2.4-1.13-4.67-2.69-6.68-4.42-2.95-2.55-3.44-5.44-1.87-8.1,2.01-3.39,5.54-5.02,9.02-3.67,2.32,.9,4.71,2.15,6.47,3.85,3.35,3.24,6.27,6.92,9.36,10.43,.39,.44,.7,.94,1.14,1.53,1.62-2.08,3.02-4.21,4.75-6.01,2.64-2.76,5.38-5.46,8.34-7.87,2.22-1.8,4.91-2.88,7.95-2.16,5.71,1.35,7.61,7.43,3.59,11.64-3.33,3.48-7.65,5.32-12.08,6.91-1.77,.63-3.59,1.1-5.4,1.83h1.51c15.2,0,30.41,0,45.61,0,2.54,0,3.17,.62,3.17,3.18,0,7.13,0,14.26,0,21.38,0,2.74-.56,3.29-3.34,3.29-.63,0-1.27,0-2.07,0,0,.8,0,1.43,0,2.07,0,21.98,0,43.96,0,65.95,0,2.99-.49,3.48-3.45,3.48-32.35,0-64.7,0-97.05,0-2.97,0-3.46-.49-3.46-3.48,0-21.98,0-43.96,0-65.95v-2.07Zm49.82,.09H51.46v67.06h45.38V86.08Zm49.75,.04h-45.37v67.04h45.37V86.12Zm5.38-4.43v-19.2h-50.75v19.2h50.75Zm-55.22,.01v-19.2H46.02v19.2h50.73Zm8.01-28.1c5.63-1.21,10.98-2.9,15.38-6.74,.37-.32,.66-.74,.97-1.13,.66-.83,.56-1.61-.1-2.42-1.37-1.67-2.88-1.98-5.19-.75-4.77,2.55-7.94,6.76-11.07,11.03Zm-11.61,.31c.07-.18,.14-.35,.21-.53-2.96-3.79-5.96-7.55-10.07-10.2-.82-.53-1.76-.93-2.7-1.19-1.6-.44-3.09,.28-3.88,1.75-.77,1.42,.32,2.25,1.13,3.06,2.31,2.28,5.19,3.65,8.17,4.77,2.35,.88,4.76,1.57,7.15,2.34Z"/></g></svg>