<?xml version="1.0" encoding="UTF-8"?><svg id="Capa_1" xmlns="http://www.w3.org/2000/svg" viewBox="0 0 198 195"><defs><style>.cls-1{fill:#1c3738;}</style></defs><g id="hIHRcJ.tif"><path class="cls-1" d="M101.42,136.03c-13.23,8.2-26.59,9-39.51,.5-12.36-8.13-17.77-20.18-15.29-34.85,2.75-16.28,13.27-25.49,29.77-29.27-3.45-2.59-6.42-5.01-9.6-7.11-2.05-1.36-2.37-2.91-1.6-4.99,.04-.1,.1-.2,.14-.3q2.75-7.53,10.84-7.53c4.79,0,9.59,.06,14.38-.03,2.22-.04,3.58,.61,4.39,2.88,3.5,9.82,3.87,6.95-3.72,13-1.59,1.27-3.26,2.42-5.35,3.96,1.4,.42,2.18,.71,2.99,.9,5.85,1.32,11.03,4,15.47,7.97,1.47,1.31,2.47,1.67,4.47,.84,13.07-5.48,28.59-1.12,36.75,10.11,9.11,12.53,8.46,28.15-1.64,39.99-8.66,10.15-25.02,13.24-37.38,7.01-1.73-.87-3.34-2-5.11-3.08Zm.44-50.4c-10.76-11.24-30.09-11.51-41.59-.19-11.78,11.61-12.44,30.25-1.72,42.08,11.66,12.86,30.2,11.91,38.8,4.72-12-14.05-10.96-33.89,4.51-46.61Zm3.84,46.99c9.05,7.23,24.18,6.07,32.98-2.26,9.52-9.02,11.08-23.58,3.69-34.55-6.96-10.33-21.45-14.37-32.48-8.88,9.46,16.08,8.35,31.35-4.18,45.69Zm-.48-43.08c-14.88,10.32-13.44,31.31-3.46,39.46,11.07-9.86,12.69-28.39,3.46-39.46Zm-27.64-21.25c.18-.18,.36-.37,.54-.55-2.2-3.76-4.39-7.51-7.01-11.98-.89,2.66-1.5,4.46-2.11,6.27,2.99,2.18,5.79,4.22,8.58,6.26Zm3.52-3.36c1.6-2.9,2.98-5.39,4.53-8.2h-9.3c1.7,2.92,3.14,5.39,4.77,8.2Zm9.67-9.19c-2.49,4.45-4.52,8.1-6.56,11.75,3.09-1.23,5.6-2.87,7.95-4.71,.48-.38,.69-1.54,.53-2.21-.32-1.33-.99-2.58-1.92-4.82Z"/></g></svg>